<svg width="32" height="32" viewBox="0 0 32 32" fill="none" xmlns="http://www.w3.org/2000/svg">
<path d="M14.7999 23.48C14.9865 23.6666 15.2132 23.7866 15.4532 23.8666C15.6265 23.9466 15.8132 24 16.0132 24C16.2132 24 16.3999 23.9466 16.5599 23.8666C16.7999 23.7866 17.0265 23.6666 17.2132 23.48L24.2132 16.4666C24.7332 15.9466 24.7332 15.1066 24.2132 14.5866C23.6932 14.0666 22.8532 14.0666 22.3332 14.5866L17.3599 19.5866V4.01333C17.3599 3.27999 16.7732 2.67999 16.0265 2.67999C15.2799 2.67999 14.6932 3.27999 14.6932 4.01333V19.5866L9.70652 14.5999C9.18652 14.0799 8.34652 14.0799 7.82652 14.5999C7.30652 15.1199 7.30652 15.96 7.82652 16.48L14.8265 23.4933L14.7999 23.48Z" fill="#676A71"/>
<path d="M25.3333 24C24.5999 24 23.9999 24.6 23.9999 25.3333C23.9999 26.2133 23.1999 26.68 22.4532 26.68H9.51992C8.75992 26.68 7.99992 26.2133 7.99992 25.3333C7.99992 24.6 7.39992 24 6.66659 24C5.93325 24 5.33325 24.6 5.33325 25.3333C5.33325 27.5867 7.17325 29.3467 9.51992 29.3467H22.4532C24.8132 29.3467 26.6666 27.5867 26.6666 25.3333C26.6666 24.6 26.0666 24 25.3333 24Z" fill="#676A71"/>
</svg>
