<svg width="73" height="15" viewBox="0 0 73 15" fill="none" xmlns="http://www.w3.org/2000/svg">
<path d="M9.0875 2.31875H2.31875V14H0.5V0.499999H9.0875V2.31875ZM17.5836 3.875V14H15.8586V5.50625H12.2773L11.6586 10.475C11.5211 11.6375 11.2398 12.5187 10.8148 13.1187C10.3898 13.7187 9.72109 14.0188 8.80859 14.0188C8.60859 14.0188 8.45234 14.0125 8.33984 14V12.3687C8.76484 12.3687 9.08359 12.2875 9.29609 12.125C9.52109 11.95 9.67734 11.7125 9.76484 11.4125C9.85234 11.1125 9.92734 10.6812 9.98984 10.1187L10.7586 3.875H17.5836ZM20.0422 5.75L20.3047 5.35625C21.1797 4.19375 22.4484 3.6125 24.1109 3.6125C25.0734 3.6125 25.9109 3.79375 26.6234 4.15625C27.3359 4.50625 27.8734 5.05 28.2359 5.7875C28.5234 6.375 28.6672 6.99375 28.6672 7.64375V14H27.0547V12.0687C26.9047 12.3937 26.6797 12.7 26.3797 12.9875C26.0797 13.275 25.7609 13.5 25.4234 13.6625C24.6859 14.0625 23.9172 14.2625 23.1172 14.2625C22.5672 14.2625 22.0297 14.1438 21.5047 13.9062C20.9922 13.6687 20.5922 13.3562 20.3047 12.9687C20.0797 12.6312 19.9109 12.3187 19.7984 12.0312C19.6984 11.7312 19.6484 11.4 19.6484 11.0375C19.6484 10.5 19.7797 10.0062 20.0422 9.55625C20.3172 9.09375 20.6984 8.71875 21.1859 8.43125C21.6109 8.19375 22.0297 8.025 22.4422 7.925C22.8547 7.825 23.4672 7.7125 24.2797 7.5875C24.5422 7.5625 24.7297 7.5375 24.8422 7.5125L26.7922 7.23125C26.7547 6.95625 26.6672 6.7 26.5297 6.4625C26.3922 6.225 26.2109 6.025 25.9859 5.8625C25.4984 5.5 24.8984 5.31875 24.1859 5.31875C23.1734 5.31875 22.4234 5.625 21.9359 6.2375C21.8234 6.3875 21.7484 6.49375 21.7109 6.55625L20.0422 5.75ZM26.3797 8.825L24.5797 9.125C23.9047 9.2375 23.3609 9.35 22.9484 9.4625C22.5359 9.5625 22.1859 9.7375 21.8984 9.9875C21.6109 10.225 21.4672 10.55 21.4672 10.9625C21.4672 11.4 21.6484 11.7812 22.0109 12.1062C22.3734 12.4312 22.8109 12.5937 23.3234 12.5937C23.9859 12.5937 24.6234 12.4187 25.2359 12.0687C25.8609 11.7187 26.2922 11.25 26.5297 10.6625C26.6797 10.35 26.7734 10.0562 26.8109 9.78125C26.8484 9.50625 26.8672 9.1625 26.8672 8.75L26.3797 8.825ZM36.0781 3.875C36.9906 3.875 37.7281 4.13125 38.2906 4.64375C38.6031 4.91875 38.8406 5.24375 39.0031 5.61875C39.1781 5.98125 39.2656 6.36875 39.2656 6.78125C39.2656 7.34375 39.1094 7.8625 38.7969 8.3375C38.6469 8.5125 38.5281 8.6375 38.4406 8.7125C38.7781 8.95 39.0406 9.2125 39.2281 9.5C39.4031 9.7125 39.5406 9.9625 39.6406 10.25C39.7406 10.525 39.7906 10.8062 39.7906 11.0937C39.7906 11.5062 39.6969 11.9125 39.5094 12.3125C39.3219 12.7125 39.0656 13.05 38.7406 13.325C38.4906 13.5375 38.1906 13.7062 37.8406 13.8312C37.4906 13.9437 37.1531 14 36.8281 14H31.1094V3.89375L36.0781 3.875ZM32.9469 8.20625H36.0781C36.5406 8.20625 36.8906 8.0375 37.1281 7.7C37.3406 7.4375 37.4344 7.13125 37.4094 6.78125C37.4094 6.43125 37.3156 6.13125 37.1281 5.88125C36.9906 5.69375 36.8406 5.5625 36.6781 5.4875C36.5156 5.4 36.3156 5.35625 36.0781 5.35625H32.9469V8.20625ZM32.9469 12.5375H36.5094C36.9719 12.5375 37.3344 12.3812 37.5969 12.0687C37.8219 11.7812 37.9344 11.4562 37.9344 11.0937C37.9344 10.7312 37.8219 10.4125 37.5969 10.1375C37.4219 9.9625 37.2469 9.84375 37.0719 9.78125C36.8969 9.71875 36.6719 9.6875 36.3969 9.6875H32.9469V12.5375ZM50.6059 3.875V14H48.8059V9.55625H43.6684V14H41.8496V3.875H43.6684V7.7375H48.8059V3.875H50.6059ZM53.0539 5.75L53.3164 5.35625C54.1914 4.19375 55.4602 3.6125 57.1227 3.6125C58.0852 3.6125 58.9227 3.79375 59.6352 4.15625C60.3477 4.50625 60.8852 5.05 61.2477 5.7875C61.5352 6.375 61.6789 6.99375 61.6789 7.64375V14H60.0664V12.0687C59.9164 12.3937 59.6914 12.7 59.3914 12.9875C59.0914 13.275 58.7727 13.5 58.4352 13.6625C57.6977 14.0625 56.9289 14.2625 56.1289 14.2625C55.5789 14.2625 55.0414 14.1438 54.5164 13.9062C54.0039 13.6687 53.6039 13.3562 53.3164 12.9687C53.0914 12.6312 52.9227 12.3187 52.8102 12.0312C52.7102 11.7312 52.6602 11.4 52.6602 11.0375C52.6602 10.5 52.7914 10.0062 53.0539 9.55625C53.3289 9.09375 53.7102 8.71875 54.1977 8.43125C54.6227 8.19375 55.0414 8.025 55.4539 7.925C55.8664 7.825 56.4789 7.7125 57.2914 7.5875C57.5539 7.5625 57.7414 7.5375 57.8539 7.5125L59.8039 7.23125C59.7664 6.95625 59.6789 6.7 59.5414 6.4625C59.4039 6.225 59.2227 6.025 58.9977 5.8625C58.5102 5.5 57.9102 5.31875 57.1977 5.31875C56.1852 5.31875 55.4352 5.625 54.9477 6.2375C54.8352 6.3875 54.7602 6.49375 54.7227 6.55625L53.0539 5.75ZM59.3914 8.825L57.5914 9.125C56.9164 9.2375 56.3727 9.35 55.9602 9.4625C55.5477 9.5625 55.1977 9.7375 54.9102 9.9875C54.6227 10.225 54.4789 10.55 54.4789 10.9625C54.4789 11.4 54.6602 11.7812 55.0227 12.1062C55.3852 12.4312 55.8227 12.5937 56.3352 12.5937C56.9977 12.5937 57.6352 12.4187 58.2477 12.0687C58.8727 11.7187 59.3039 11.25 59.5414 10.6625C59.6914 10.35 59.7852 10.0562 59.8227 9.78125C59.8602 9.50625 59.8789 9.1625 59.8789 8.75L59.3914 8.825ZM70.2711 14V10.4H67.3836L65.6398 14H63.5586L65.4523 10.1187C65.0898 9.96875 64.7711 9.75625 64.4961 9.48125C64.1961 9.18125 63.9648 8.825 63.8023 8.4125C63.6398 8 63.5586 7.575 63.5586 7.1375C63.5586 6.7 63.6398 6.275 63.8023 5.8625C63.9648 5.45 64.1961 5.09375 64.4961 4.79375C64.7961 4.49375 65.1461 4.26875 65.5461 4.11875C65.9586 3.95625 66.3773 3.875 66.8023 3.875H72.0898L72.1086 14H70.2711ZM70.2711 8.675V5.6H66.8773C66.4773 5.6 66.1336 5.7625 65.8461 6.0875C65.5586 6.375 65.4148 6.725 65.4148 7.1375C65.4148 7.525 65.5523 7.86875 65.8273 8.16875C66.1398 8.50625 66.4898 8.675 66.8773 8.675H70.2711Z" fill="#676A71"/>
</svg>
