<svg width="24" height="26" viewBox="0 0 24 26" fill="none" xmlns="http://www.w3.org/2000/svg">
<path d="M18.6667 3.33341V2.00008C18.6667 1.26675 18.0667 0.666748 17.3333 0.666748C16.6 0.666748 16 1.26675 16 2.00008V3.33341H8V2.00008C8 1.26675 7.4 0.666748 6.66667 0.666748C5.93333 0.666748 5.33333 1.26675 5.33333 2.00008V3.33341C2.38667 3.33341 0 5.72008 0 8.66675V20.6667C0 23.6134 2.38667 26.0001 5.33333 26.0001H18.6667C21.6133 26.0001 24 23.6134 24 20.6667V8.66675C24 5.72008 21.6133 3.33341 18.6667 3.33341ZM21.3333 20.6667C21.3333 22.1334 20.1333 23.3334 18.6667 23.3334H5.33333C3.86667 23.3334 2.66667 22.1334 2.66667 20.6667V8.66675C2.66667 7.20008 3.86667 6.00008 5.33333 6.00008V7.33342C5.33333 8.06675 5.93333 8.66675 6.66667 8.66675C7.4 8.66675 8 8.06675 8 7.33342V6.00008H16V7.33342C16 8.06675 16.6 8.66675 17.3333 8.66675C18.0667 8.66675 18.6667 8.06675 18.6667 7.33342V6.00008C20.1333 6.00008 21.3333 7.20008 21.3333 8.66675V20.6667Z" fill="#676A71"/>
<path d="M8.94668 13.0667C8.45334 12.5734 7.54666 12.5734 7.05332 13.0667C6.93332 13.1867 6.84 13.3334 6.77334 13.4934C6.70667 13.6667 6.66667 13.8401 6.66667 14.0134C6.66667 14.1867 6.70667 14.3601 6.77334 14.5201C6.84 14.6801 6.93332 14.8267 7.05332 14.9467C7.30666 15.2001 7.65333 15.3467 8 15.3467C8.17333 15.3467 8.34667 15.3067 8.50667 15.2401C8.66667 15.1734 8.81334 15.0801 8.94668 14.9467C9.06668 14.8267 9.16 14.6801 9.22666 14.5201C9.30666 14.3601 9.33333 14.1867 9.33333 14.0134C9.33333 13.8401 9.30666 13.6667 9.22666 13.4934C9.16 13.3334 9.06668 13.1867 8.94668 13.0667Z" fill="#676A71"/>
<path d="M8.94668 17.0667C8.88001 17.0001 8.81333 16.9468 8.74666 16.9067C8.66666 16.8534 8.58667 16.8134 8.50667 16.7734C8.42667 16.7467 8.34666 16.7201 8.26666 16.7068C8.09333 16.6668 7.90666 16.6668 7.74666 16.7068C7.65333 16.7068 7.57333 16.7467 7.49333 16.7734C7.41333 16.8134 7.33333 16.8534 7.26666 16.9067C7.18666 16.9468 7.11999 17.0001 7.05332 17.0667C6.93332 17.1867 6.84 17.3334 6.77334 17.4934C6.70667 17.6668 6.66667 17.8267 6.66667 18.0134C6.66667 18.3734 6.81332 18.7067 7.05332 18.9467C7.30666 19.2001 7.65333 19.3467 8 19.3467C8.34667 19.3467 8.69334 19.2001 8.94668 18.9467C9.20001 18.7067 9.33333 18.3734 9.33333 18.0134C9.33333 17.8267 9.29333 17.6668 9.22666 17.4934C9.16 17.3334 9.06668 17.1867 8.94668 17.0667Z" fill="#676A71"/>
<path d="M12.9467 13.0667C12.88 13.0001 12.8133 12.9467 12.7467 12.8934C12.6667 12.8534 12.5867 12.8134 12.5067 12.7734C12.4267 12.7467 12.3467 12.7201 12.2667 12.7068C12 12.6534 11.7333 12.6801 11.4933 12.7734C11.3333 12.8401 11.1867 12.9467 11.0533 13.0667C10.9333 13.1867 10.84 13.3334 10.7733 13.4934C10.7067 13.6667 10.6667 13.8401 10.6667 14.0134C10.6667 14.1867 10.7067 14.3601 10.7733 14.5201C10.84 14.6801 10.9333 14.8267 11.0533 14.9467C11.1867 15.0801 11.3333 15.1734 11.4933 15.2401C11.6533 15.3067 11.8267 15.3467 12 15.3467C12.1733 15.3467 12.3467 15.3067 12.5067 15.2401C12.6667 15.1734 12.8133 15.0801 12.9467 14.9467C13.0667 14.8267 13.16 14.6801 13.2267 14.5201C13.3067 14.3601 13.3333 14.1867 13.3333 14.0134C13.3333 13.8401 13.3067 13.6667 13.2267 13.4934C13.16 13.3334 13.0667 13.1867 12.9467 13.0667Z" fill="#676A71"/>
<path d="M12.9467 17.0667C12.8267 16.9467 12.68 16.84 12.5067 16.7734C12.1867 16.64 11.8133 16.64 11.4933 16.7734C11.3333 16.84 11.1867 16.9467 11.0533 17.0667C10.9333 17.1867 10.84 17.3334 10.7733 17.4934C10.7067 17.6667 10.6667 17.8267 10.6667 18.0134C10.6667 18.1867 10.7067 18.36 10.7733 18.52C10.84 18.68 10.9333 18.8267 11.0533 18.9467C11.1867 19.0801 11.3333 19.1734 11.4933 19.2401C11.6533 19.3067 11.8267 19.3467 12 19.3467C12.36 19.3467 12.6933 19.2001 12.9467 18.9467C13.0667 18.8267 13.16 18.68 13.24 18.52C13.3067 18.36 13.3333 18.1867 13.3333 18.0134C13.3333 17.84 13.3067 17.6667 13.2267 17.4934C13.16 17.3334 13.0667 17.1867 12.9467 17.0667Z" fill="#676A71"/>
<path d="M16.9467 13.0667C16.8267 12.9467 16.68 12.84 16.5067 12.7734C16.0133 12.5734 15.4267 12.6934 15.0533 13.0667C14.9333 13.1867 14.84 13.3334 14.7733 13.4934C14.7067 13.6667 14.6667 13.84 14.6667 14.0134C14.6667 14.1867 14.7067 14.36 14.7733 14.52C14.84 14.68 14.9333 14.8267 15.0533 14.9467C15.1867 15.0801 15.3333 15.1734 15.4933 15.2401C15.6533 15.3067 15.8267 15.3467 16 15.3467C16.1733 15.3467 16.3467 15.3067 16.5067 15.2401C16.6667 15.1734 16.8133 15.0801 16.9467 14.9467C17.0667 14.8267 17.16 14.68 17.2267 14.52C17.3067 14.36 17.3333 14.1867 17.3333 14.0134C17.3333 13.84 17.3067 13.6667 17.2267 13.4934C17.16 13.3334 17.0667 13.1867 16.9467 13.0667Z" fill="#676A71"/>
<path d="M16.9467 17.0667C16.88 17.0001 16.8133 16.9468 16.7467 16.9067C16.6667 16.8534 16.5867 16.8134 16.5067 16.7734C16.4267 16.7467 16.3467 16.7201 16.2667 16.7068C16.0933 16.6668 15.9067 16.6668 15.7467 16.7068C15.6533 16.7068 15.5733 16.7467 15.4933 16.7734C15.4133 16.8134 15.3333 16.8534 15.2667 16.9067C15.1867 16.9468 15.12 17.0001 15.0533 17.0667C14.9333 17.1867 14.84 17.3334 14.7733 17.4934C14.7067 17.6668 14.6667 17.8267 14.6667 18.0134C14.6667 18.3734 14.8133 18.7067 15.0533 18.9467C15.3067 19.2001 15.6533 19.3467 16 19.3467C16.3467 19.3467 16.6933 19.2001 16.9467 18.9467C17.2 18.7067 17.3333 18.3734 17.3333 18.0134C17.3333 17.8267 17.2933 17.6668 17.2267 17.4934C17.16 17.3334 17.0667 17.1867 16.9467 17.0667Z" fill="#676A71"/>
</svg>
