<svg width="24" height="24" viewBox="0 0 24 24" fill="none" xmlns="http://www.w3.org/2000/svg">
<path d="M11.1 17.61C11.24 17.75 11.41 17.84 11.59 17.9C11.72 17.96 11.86 18 12.01 18C12.16 18 12.3 17.96 12.42 17.9C12.6 17.84 12.77 17.75 12.91 17.61L18.16 12.35C18.55 11.96 18.55 11.33 18.16 10.94C17.77 10.55 17.14 10.55 16.75 10.94L13.02 14.69V3.01001C13.02 2.46001 12.58 2.01001 12.02 2.01001C11.46 2.01001 11.02 2.46001 11.02 3.01001V14.69L7.28001 10.95C6.89001 10.56 6.26001 10.56 5.87001 10.95C5.48001 11.34 5.48001 11.97 5.87001 12.36L11.12 17.62L11.1 17.61Z" fill="#009CB4"/>
<path d="M19 18C18.45 18 18 18.45 18 19C18 19.66 17.4 20.01 16.84 20.01H7.14C6.57 20.01 6 19.66 6 19C6 18.45 5.55 18 5 18C4.45 18 4 18.45 4 19C4 20.69 5.38 22.01 7.14 22.01H16.84C18.61 22.01 20 20.69 20 19C20 18.45 19.55 18 19 18Z" fill="#009CB4"/>
</svg>
