<svg width="22" height="28" viewBox="0 0 22 28" fill="none" xmlns="http://www.w3.org/2000/svg">
<path d="M21.6265 17.8132L20.8665 12.2665C20.2398 7.63985 16.6665 4.05319 12.3198 3.43986V2.01327C12.3198 1.27993 11.7198 0.679932 10.9865 0.679932C10.2532 0.679932 9.65317 1.27993 9.65317 2.01327V3.43986C5.30651 4.06653 1.75983 7.63985 1.11983 12.2665L0.359839 17.8132C0.159839 19.2532 0.586492 20.6933 1.53316 21.7599C2.42649 22.7733 3.69317 23.3599 5.02651 23.3599H6.42651C6.71984 25.5865 8.61317 27.3199 10.9198 27.3199C13.2265 27.3199 15.1198 25.5865 15.4132 23.3599H16.9198C18.2532 23.3599 19.5198 22.7733 20.4132 21.7599C21.3598 20.6799 21.7865 19.2399 21.5865 17.8132H21.6265ZM10.9465 24.6666C10.1065 24.6666 9.41316 24.1199 9.15983 23.3732H12.7332C12.4798 24.1199 11.7865 24.6666 10.9465 24.6666ZM18.4398 20.0133C18.0532 20.4533 17.5198 20.7065 16.9465 20.7065H5.03983C4.4665 20.7065 3.9465 20.4666 3.5465 20.0133C3.11984 19.5199 2.91983 18.8399 3.01316 18.1733L3.77317 12.6265C4.27984 8.85321 7.3865 5.99992 10.9998 5.99992C14.6132 5.99992 17.7065 8.85321 18.2265 12.6265L18.9865 18.1733C19.0798 18.8399 18.8798 19.5199 18.4532 20.0133H18.4398Z" fill="current"/>
</svg>
